<svg xmlns="http://www.w3.org/2000/svg" viewBox="0 0 100 100" width="100" height="100">
  <defs>
    <linearGradient id="gradVariantB" x1="0%" y1="0%" x2="100%" y2="100%">
      <stop offset="0%" style="stop-color:#1A1A1A;stop-opacity:1" />
      <stop offset="100%" style="stop-color:#333333;stop-opacity:1" />
    </linearGradient>
  </defs>
  
  <!-- 배경 원 (Variant B 스타일 - 더 강렬한 스포츠 감성) -->
  <circle cx="50" cy="50" r="48" fill="url(#gradVariantB)" />
  
  <!-- YAGO 텍스트 (Variant B - 더 굵고 스포츠틱) -->
  <text x="50" y="58" font-family="Arial, sans-serif" font-size="32" font-weight="900" fill="white" text-anchor="middle">Y</text>
  
  <!-- 스포츠 아이콘 (축구공 - Variant B는 더 역동적) -->
  <circle cx="50" cy="32" r="10" fill="none" stroke="white" stroke-width="2.5"/>
  <path d="M 50 22 Q 43 25 38 32 Q 50 28 62 32 Q 57 25 50 22" fill="none" stroke="white" stroke-width="1.5"/>
  <path d="M 50 32 Q 43 35 38 42 Q 50 38 62 42 Q 57 35 50 32" fill="none" stroke="white" stroke-width="1.5"/>
  <line x1="38" y1="32" x2="62" y2="32" stroke="white" stroke-width="1.5"/>
  
  <!-- VIBE 파형 (Variant B - 더 강렬한 에너지) -->
  <path d="M 25 68 Q 32 62 40 68 T 50 68 T 60 68 T 75 68" fill="none" stroke="white" stroke-width="2.5" stroke-linecap="round"/>
  <path d="M 25 78 Q 32 84 40 78 T 50 78 T 60 78 T 75 78" fill="none" stroke="white" stroke-width="2.5" stroke-linecap="round"/>
  <path d="M 25 73 Q 32 73 40 73 T 50 73 T 60 73 T 75 73" fill="none" stroke="white" stroke-width="1.5" stroke-linecap="round"/>
</svg>

