<svg xmlns="http://www.w3.org/2000/svg" width="829" height="497" viewBox="0 0 829 497">
<g>
<path d="M 523.50 398.76 C519.60,400.77 516.74,401.41 510.50,401.64 C502.03,401.96 499.90,401.54 493.50,398.24 C481.07,391.85 475.28,375.88 479.49,359.68 C481.93,350.33 485.79,345.23 493.50,341.17 C497.98,338.81 499.61,338.54 509.08,338.52 C519.12,338.50 519.90,338.65 524.54,341.52 C534.82,347.87 539.57,358.17 538.79,372.41 C538.07,385.69 533.46,393.63 523.50,398.76 ZM 324.61 399.20 C320.16,401.47 305.62,402.66 301.00,401.13 C291.87,398.11 284.95,391.70 281.66,383.23 C279.47,377.61 279.43,363.03 281.58,356.73 C283.52,351.01 289.89,343.63 295.37,340.73 C298.84,338.90 301.17,338.55 310.00,338.53 C322.03,338.50 326.18,340.03 331.99,346.64 C337.97,353.46 339.50,358.21 339.50,370.00 C339.50,378.57 339.11,381.34 337.39,385.05 C334.58,391.14 329.59,396.66 324.61,399.20 ZM 561.00 379.00 L 561.00 401.00 L 554.67 401.00 C551.18,401.00 548.03,400.70 547.67,400.33 C547.30,399.97 547.00,386.02 547.00,369.33 L 547.00 339.00 L 563.32 339.00 C582.16,339.00 587.17,340.15 591.92,345.56 C598.70,353.28 598.51,365.69 591.50,372.70 C589.68,374.52 587.48,376.00 586.60,376.00 C584.82,376.00 584.52,377.10 585.90,378.55 C587.02,379.73 598.00,399.62 598.00,400.47 C598.00,400.81 594.58,400.95 590.39,400.79 L 582.78 400.50 L 577.33 389.75 L 571.87 379.00 ZM 438.00 381.19 L 438.00 401.00 L 431.67 401.00 C428.18,401.00 425.03,400.70 424.67,400.33 C424.30,399.97 424.00,385.99 424.00,369.27 L 424.00 338.87 L 441.25 339.19 C460.77,339.54 463.79,340.42 469.45,347.41 C472.30,350.94 472.50,351.73 472.50,359.42 C472.50,366.67 472.18,368.13 469.82,371.70 C465.69,377.94 459.69,380.42 447.75,380.84 ZM 256.53 398.19 C252.90,400.75 251.06,401.31 245.34,401.58 C234.58,402.10 228.41,399.64 221.93,392.26 C216.36,385.92 214.65,380.71 214.63,370.00 C214.61,358.24 216.92,352.22 224.00,345.59 C230.23,339.77 237.31,337.58 247.92,338.22 C261.37,339.02 270.38,346.34 271.24,357.17 L 271.50 360.50 L 265.36 360.79 L 259.22 361.09 L 257.07 356.65 C254.40,351.12 251.10,349.61 243.02,350.19 C232.88,350.93 228.64,356.62 228.64,369.50 C228.65,383.05 234.02,389.99 244.50,389.99 C250.75,389.99 255.59,387.21 257.56,382.51 C258.35,380.61 259.00,378.82 259.00,378.53 C259.00,378.24 255.85,378.00 252.00,378.00 L 245.00 378.00 L 245.00 368.00 L 272.05 368.00 L 271.77 384.25 L 271.50 400.50 L 266.50 400.50 C261.82,400.50 261.48,400.33 261.19,397.81 L 260.88 395.13 ZM 172.63 387.50 L 168.50 400.50 L 161.75 400.80 C156.50,401.03 155.00,400.78 155.00,399.70 C155.00,398.93 156.54,394.07 158.43,388.90 C162.12,378.80 169.09,359.33 173.54,346.71 L 176.29 338.92 L 184.26 339.21 L 192.23 339.50 L 193.53 343.00 C194.25,344.92 198.28,356.17 202.50,368.00 C206.72,379.83 211.03,391.88 212.08,394.79 C213.14,397.70 214.00,400.30 214.00,400.58 C214.00,400.86 210.75,400.96 206.78,400.79 L 199.57 400.50 L 197.63 393.72 L 195.70 386.94 L 184.16 387.22 ZM 405.55 399.23 C401.20,401.45 388.20,402.49 382.00,401.12 C372.81,399.09 366.57,393.27 365.31,385.54 L 364.74 382.00 L 371.80 382.00 C378.26,382.00 378.89,382.18 379.18,384.15 C379.98,389.51 390.99,392.70 398.24,389.67 C405.13,386.79 404.24,378.98 396.80,376.91 C378.12,371.73 375.44,370.67 371.83,367.07 C363.88,359.12 365.98,347.50 376.57,340.96 C379.03,339.43 382.30,338.66 387.77,338.29 C400.75,337.41 408.71,340.89 412.86,349.25 C416.13,355.84 415.41,357.00 408.08,357.00 C402.26,357.00 402.05,356.91 400.48,353.60 C398.74,349.94 396.75,349.03 390.50,349.03 C385.56,349.03 381.97,350.79 380.89,353.74 C379.51,357.52 383.36,360.74 392.00,363.04 C403.89,366.19 406.29,367.09 409.75,369.67 C414.05,372.89 416.00,376.89 416.00,382.50 C416.00,389.91 412.35,395.76 405.55,399.23 ZM 695.06 399.51 C691.22,401.45 677.46,402.43 672.40,401.12 C663.39,398.78 656.06,391.46 656.02,384.75 C656.00,382.04 656.09,382.00 662.27,382.00 C668.42,382.00 668.58,382.07 670.43,385.50 C671.86,388.16 673.31,389.28 676.40,390.11 C685.19,392.47 693.00,389.40 693.00,383.58 C693.00,379.53 690.62,377.91 680.45,375.08 C668.34,371.70 665.23,370.16 661.15,365.52 C658.40,362.38 658.00,361.20 658.00,356.19 C658.00,350.31 659.29,347.37 663.47,343.73 C668.49,339.35 671.26,338.55 681.50,338.53 C692.54,338.50 697.73,340.29 701.89,345.59 C704.14,348.45 706.25,354.79 705.40,356.16 C705.12,356.62 702.20,357.00 698.92,357.00 C693.51,357.00 692.86,356.77 692.02,354.55 C690.45,350.42 686.71,348.69 680.43,349.21 C673.61,349.78 670.38,352.39 671.41,356.48 C672.20,359.64 677.23,362.15 687.50,364.54 C701.39,367.76 706.34,372.32 706.33,381.89 C706.32,390.23 702.93,395.52 695.06,399.51 ZM 139.00 378.71 L 139.00 401.00 L 132.67 401.00 C129.18,401.00 126.03,400.70 125.67,400.33 C125.30,399.97 125.00,394.74 125.00,388.72 L 125.00 377.77 L 115.64 360.63 C110.50,351.21 105.76,342.49 105.11,341.25 C103.93,339.01 103.96,339.00 111.81,339.00 L 119.69 339.00 L 125.55 351.57 C128.78,358.48 131.77,364.36 132.20,364.62 C132.63,364.89 135.77,359.23 139.16,352.05 L 145.34 339.00 L 161.20 339.00 L 158.98 342.75 C157.77,344.81 152.77,353.75 147.88,362.60 ZM 634.00 351.00 L 634.00 401.00 L 627.67 401.00 C624.18,401.00 621.03,400.70 620.67,400.33 C620.30,399.97 620.00,388.72 620.00,375.33 L 620.00 351.00 L 602.00 351.00 L 602.00 339.00 L 653.00 339.00 L 653.00 351.00 ZM 502.00 389.30 C502.83,389.60 506.09,389.88 509.25,389.92 C514.47,389.99 515.35,389.68 518.88,386.49 C524.88,381.07 526.65,370.92 523.47,360.21 C521.23,352.68 517.35,350.00 508.69,350.00 C502.72,350.00 501.73,350.30 498.55,353.09 C494.74,356.44 492.00,363.51 492.00,370.00 C492.00,378.33 496.68,387.36 502.00,389.30 ZM 301.29 388.04 C305.44,390.57 314.04,390.68 318.16,388.25 C323.79,384.94 325.50,380.66 325.48,370.00 C325.44,355.20 321.58,350.00 310.62,350.00 C298.97,350.01 294.06,356.02 294.02,370.29 C294.00,379.47 296.25,384.96 301.29,388.04 ZM 438.67 369.33 C439.87,370.54 450.00,370.03 453.45,368.58 C457.58,366.86 459.00,364.41 459.00,359.02 C459.00,355.99 458.36,354.26 456.55,352.45 C454.35,350.26 453.25,350.00 446.05,350.00 L 438.00 350.00 L 438.00 359.33 C438.00,364.47 438.30,368.97 438.67,369.33 ZM 561.67 367.33 C562.03,367.70 565.67,368.00 569.74,368.00 C576.60,368.00 577.37,367.78 580.08,365.08 C582.96,362.19 583.82,358.29 582.38,354.54 C581.24,351.58 576.43,350.00 568.55,350.00 L 561.00 350.00 L 561.00 358.33 C561.00,362.92 561.30,366.97 561.67,367.33 ZM 175.00 460.00 C175.00,464.33 174.73,465.00 173.00,465.00 C171.10,465.00 171.00,464.33 171.00,451.50 L 171.00 438.00 L 178.85 438.00 C188.28,438.00 190.00,439.25 190.00,446.15 C190.00,452.46 187.18,455.00 180.19,455.00 L 175.00 455.00 ZM 407.00 467.89 C407.00,471.77 406.64,473.00 405.50,473.00 C404.24,473.00 404.00,470.78 404.00,459.00 C404.00,447.59 404.26,445.00 405.42,445.00 C406.20,445.00 407.00,445.51 407.21,446.14 C407.50,447.00 408.13,447.00 409.73,446.14 C413.54,444.11 417.66,444.75 420.03,447.75 C421.80,450.00 422.12,451.46 421.77,455.73 C421.21,462.58 418.85,465.32 414.02,464.74 C412.08,464.51 409.71,463.98 408.75,463.55 C407.21,462.88 407.00,463.40 407.00,467.89 ZM 264.01 461.27 C257.07,470.09 243.67,462.74 246.91,451.89 C248.32,447.21 251.27,445.00 256.14,445.00 C261.22,445.00 262.84,445.78 264.54,449.07 C266.59,453.04 266.36,458.27 264.01,461.27 ZM 351.09 463.72 C348.98,465.34 343.10,465.26 340.05,463.57 C337.23,462.01 336.17,459.81 336.07,455.30 C335.93,448.78 339.56,445.00 345.97,445.00 C350.20,445.00 351.91,445.92 353.54,449.07 C356.15,454.13 355.06,460.67 351.09,463.72 ZM 441.55 462.55 C438.69,465.40 432.71,465.89 429.36,463.54 C424.25,459.96 423.87,450.82 428.67,447.04 C432.40,444.11 438.40,444.31 441.55,447.45 C443.51,449.42 444.00,450.93 444.00,455.00 C444.00,459.07 443.51,460.58 441.55,462.55 ZM 128.44 461.50 C127.50,463.73 126.30,465.00 125.10,465.00 C123.05,465.00 123.12,464.67 127.84,452.50 C128.91,449.75 130.61,445.34 131.62,442.71 C133.17,438.67 133.83,437.96 135.81,438.21 C138.28,438.51 138.45,438.84 144.92,455.37 C148.54,464.63 148.59,465.00 146.08,465.00 C144.77,465.00 143.79,463.89 143.00,461.50 C141.85,458.02 141.81,458.00 135.87,458.00 C129.99,458.00 129.88,458.05 128.44,461.50 ZM 286.00 458.07 C286.00,464.33 285.81,465.00 284.00,465.00 C282.13,465.00 282.00,464.33 282.00,455.00 C282.00,445.67 282.13,445.00 284.00,445.00 C285.10,445.00 286.00,445.47 286.00,446.04 C286.00,446.75 286.60,446.75 287.93,446.04 C290.74,444.53 294.56,444.77 296.02,446.53 C297.16,447.89 297.46,447.89 298.97,446.53 C301.27,444.44 306.33,444.61 308.35,446.83 C310.65,449.37 310.78,465.00 308.50,465.00 C307.34,465.00 307.00,463.67 307.00,459.07 C307.00,451.70 305.69,448.00 303.10,448.00 C299.34,448.00 298.00,450.67 298.00,458.14 C298.00,464.27 297.78,465.11 296.25,464.81 C294.81,464.54 294.41,463.07 294.00,456.49 C293.55,449.29 293.29,448.47 291.37,448.20 C287.54,447.65 286.00,450.48 286.00,458.07 ZM 212.01 464.00 C209.05,465.58 204.47,465.17 202.65,463.17 C198.76,458.87 202.12,454.33 209.96,453.28 C214.05,452.73 214.99,451.39 212.80,449.20 C211.13,447.53 207.98,447.70 205.90,449.59 C204.94,450.46 203.33,451.01 202.32,450.81 C200.70,450.49 200.80,450.15 203.20,447.73 C205.21,445.70 206.89,445.00 209.70,445.02 C216.29,445.04 218.00,447.71 218.00,457.93 C218.00,463.42 217.68,465.00 216.56,465.00 C215.77,465.00 214.84,464.55 214.50,464.00 C214.08,463.33 213.26,463.33 212.01,464.00 ZM 398.25 461.94 C395.93,464.80 390.41,465.99 386.14,464.55 C383.01,463.49 380.00,460.68 380.00,458.81 C380.00,457.32 383.16,457.98 385.73,460.00 C390.32,463.61 396.00,461.96 396.00,457.00 C396.00,454.39 395.54,453.96 391.75,453.01 C389.41,452.43 386.04,451.29 384.25,450.49 C381.40,449.21 381.00,448.56 381.00,445.17 C381.00,440.28 383.49,437.90 389.21,437.34 C394.19,436.85 397.93,438.52 399.11,441.75 C399.79,443.61 399.59,444.00 397.94,444.00 C396.84,444.00 395.68,443.33 395.36,442.50 C394.47,440.18 386.36,440.46 385.07,442.86 C383.58,445.66 385.65,447.56 392.23,449.42 C395.64,450.39 398.37,451.82 398.98,452.96 C400.51,455.82 400.21,459.52 398.25,461.94 ZM 635.92 463.75 C633.95,465.61 628.56,465.27 626.65,463.17 C624.47,460.76 624.53,456.32 626.77,455.12 C627.74,454.60 630.33,453.85 632.52,453.46 C637.82,452.50 638.18,452.21 636.97,449.94 C635.73,447.63 631.76,447.39 629.64,449.50 C628.04,451.10 625.00,451.54 625.00,450.17 C625.00,449.72 626.04,448.37 627.31,447.17 C630.29,444.38 636.95,444.19 639.35,446.83 C641.58,449.30 641.79,465.00 639.58,465.00 C638.80,465.00 637.96,464.44 637.71,463.75 C637.34,462.75 636.98,462.75 635.92,463.75 ZM 519.00 463.00 C519.00,464.83 518.33,465.00 511.00,465.00 L 503.00 465.00 L 503.00 438.00 L 511.00 438.00 C517.44,438.00 519.00,438.29 519.00,439.50 C519.00,440.68 517.60,441.00 512.44,441.00 L 505.88 441.00 L 506.50 448.50 L 512.25 448.80 C516.47,449.02 518.00,449.49 518.00,450.55 C518.00,451.66 516.57,452.00 512.00,452.00 L 506.00 452.00 L 506.00 461.00 L 512.50 461.00 C518.33,461.00 519.00,461.21 519.00,463.00 ZM 561.00 458.07 C561.00,464.33 560.81,465.00 559.00,465.00 C557.10,465.00 557.00,464.33 557.00,451.00 C557.00,437.67 557.10,437.00 559.00,437.00 C560.70,437.00 561.00,437.67 561.00,441.45 L 561.00 445.91 L 565.86 445.33 C572.57,444.53 574.00,446.63 574.00,457.30 C574.00,464.23 573.80,465.11 572.25,464.81 C570.79,464.53 570.47,463.24 570.31,457.08 C570.11,449.59 569.35,448.05 565.82,448.02 C562.37,447.98 561.00,450.83 561.00,458.07 ZM 176.79 376.45 C177.62,377.29 190.82,377.10 191.31,376.25 C191.89,375.21 184.68,353.02 183.75,353.01 C183.34,353.00 182.99,353.79 182.98,354.75 C182.97,355.71 181.45,360.87 179.60,366.20 C177.75,371.54 176.49,376.15 176.79,376.45 ZM 589.80 463.80 C587.85,465.75 582.52,465.24 580.41,462.90 C578.96,461.30 578.42,458.90 578.15,452.90 C577.81,445.42 577.90,445.00 579.89,445.00 C581.85,445.00 582.00,445.54 582.00,452.46 C582.00,458.82 582.29,460.08 583.93,460.96 C588.83,463.59 591.00,460.81 591.00,451.93 C591.00,445.67 591.19,445.00 593.00,445.00 C594.87,445.00 595.00,445.67 595.00,455.00 C595.00,464.33 594.87,465.00 593.00,465.00 C591.90,465.00 591.00,464.46 591.00,463.80 C591.00,462.87 590.73,462.87 589.80,463.80 ZM 526.00 459.57 C526.00,463.73 525.65,465.00 524.50,465.00 C523.27,465.00 523.00,463.22 523.00,455.00 C523.00,447.04 523.29,445.00 524.42,445.00 C525.20,445.00 525.98,445.45 526.17,446.01 C526.39,446.66 527.57,446.61 529.58,445.85 C533.68,444.31 537.40,445.38 538.83,448.52 C539.47,449.94 540.00,454.22 540.00,458.05 C540.00,464.33 539.81,465.00 538.00,465.00 C536.20,465.00 536.00,464.33 536.00,458.19 C536.00,449.99 534.57,447.39 530.62,448.38 C527.30,449.21 526.00,452.36 526.00,459.57 ZM 487.00 463.00 C483.37,466.63 473.00,464.73 473.00,460.44 C473.00,458.53 475.42,458.60 477.04,460.55 C478.91,462.80 484.50,462.09 484.50,459.61 C484.50,458.24 483.28,457.36 480.01,456.40 C473.19,454.38 471.25,450.75 475.00,447.00 C477.61,444.39 484.05,444.29 486.35,446.83 C488.52,449.23 488.43,450.00 486.00,450.00 C484.90,450.00 484.00,449.52 484.00,448.94 C484.00,447.12 477.55,448.31 477.20,450.19 C476.96,451.43 478.02,452.20 481.19,453.09 C485.62,454.33 489.00,457.15 489.00,459.61 C489.00,460.37 488.10,461.90 487.00,463.00 ZM 612.00 463.00 C609.30,465.70 603.11,465.68 600.19,462.96 C598.98,461.84 598.00,460.49 598.00,459.96 C598.00,458.37 601.74,458.88 602.39,460.56 C603.31,462.97 609.50,462.10 609.50,459.56 C609.50,458.19 608.49,457.37 606.00,456.73 C601.30,455.52 599.00,453.27 599.00,449.88 C599.00,444.75 607.96,442.96 612.24,447.24 C614.32,449.32 614.35,449.50 612.63,449.83 C611.62,450.03 610.30,449.70 609.69,449.09 C608.37,447.77 605.03,447.69 603.06,448.94 C600.94,450.29 603.26,452.64 607.50,453.43 C613.78,454.61 615.89,459.11 612.00,463.00 ZM 689.00 463.00 C686.14,465.86 680.01,465.70 677.17,462.69 C675.98,461.41 675.00,460.06 675.00,459.69 C675.00,458.40 678.78,458.99 679.31,460.36 C680.06,462.33 683.63,462.99 685.62,461.54 C688.08,459.73 686.70,457.35 682.76,456.61 C679.00,455.91 675.00,452.74 675.00,450.46 C675.00,445.32 685.01,443.01 689.19,447.19 C691.77,449.77 690.11,450.93 686.55,449.03 C683.58,447.44 679.60,448.07 679.20,450.19 C678.96,451.43 680.02,452.21 683.19,453.11 C690.87,455.31 693.02,458.98 689.00,463.00 ZM 657.78 463.44 C654.40,465.81 648.76,465.44 646.17,462.69 C644.98,461.41 644.00,460.06 644.00,459.69 C644.00,458.41 647.13,458.99 648.70,460.55 C650.85,462.71 655.50,462.06 655.50,459.60 C655.50,458.29 654.29,457.28 651.61,456.35 C646.49,454.58 645.00,453.25 645.00,450.43 C645.00,445.24 655.34,442.80 658.47,447.25 C659.92,449.31 659.92,449.53 658.42,449.84 C657.52,450.03 656.30,449.70 655.69,449.09 C654.17,447.57 650.47,447.73 649.11,449.37 C647.71,451.06 649.16,452.40 653.50,453.44 C659.80,454.94 662.13,460.39 657.78,463.44 ZM 241.00 457.00 C241.00,464.33 240.83,465.00 239.00,465.00 C237.17,465.00 237.00,464.33 237.00,457.11 C237.00,451.01 236.66,449.08 235.50,448.64 C233.61,447.91 233.52,445.00 235.39,445.00 C236.18,445.00 237.05,443.53 237.42,441.60 C238.06,438.18 239.51,437.00 243.08,437.00 C245.62,437.00 245.55,439.62 243.00,440.29 C241.80,440.60 241.00,441.65 241.00,442.91 C241.00,444.33 241.64,445.00 243.00,445.00 C244.33,445.00 245.00,445.67 245.00,447.00 C245.00,448.33 244.33,449.00 243.00,449.00 C241.17,449.00 241.00,449.67 241.00,457.00 ZM 330.00 457.00 C330.00,464.33 329.83,465.00 328.00,465.00 C326.17,465.00 326.00,464.33 326.00,457.11 C326.00,451.01 325.66,449.08 324.50,448.64 C323.67,448.32 323.00,447.37 323.00,446.53 C323.00,445.69 323.67,445.00 324.50,445.00 C325.33,445.00 326.00,444.11 326.00,443.00 C326.00,441.90 326.90,440.10 328.00,439.00 C330.35,436.65 334.00,436.34 334.00,438.50 C334.00,439.33 333.37,440.00 332.61,440.00 C331.30,440.00 330.00,442.03 330.00,444.08 C330.00,444.59 330.90,445.00 332.00,445.00 C333.33,445.00 334.00,445.67 334.00,447.00 C334.00,448.33 333.33,449.00 332.00,449.00 C330.17,449.00 330.00,449.67 330.00,457.00 ZM 673.00 463.62 C673.00,465.63 668.60,465.32 666.65,463.17 C665.50,461.89 665.00,459.52 665.00,455.29 C665.00,450.07 664.72,449.16 663.00,448.71 C661.90,448.42 661.00,447.47 661.00,446.59 C661.00,445.67 661.84,445.00 663.00,445.00 C664.47,445.00 665.00,444.33 665.00,442.50 C665.00,440.67 665.53,440.00 667.00,440.00 C668.47,440.00 669.00,440.67 669.00,442.50 C669.00,444.33 669.53,445.00 671.00,445.00 C672.33,445.00 673.00,445.67 673.00,447.00 C673.00,448.33 672.33,449.00 671.00,449.00 C669.22,449.00 669.00,449.67 669.00,455.09 C669.00,460.35 669.28,461.26 671.00,461.71 C672.10,462.00 673.00,462.86 673.00,463.62 ZM 430.56 459.78 C431.55,461.20 433.15,462.00 435.00,462.00 C440.20,462.00 442.83,455.05 439.44,450.22 C438.45,448.80 436.85,448.00 435.00,448.00 C429.80,448.00 427.17,454.95 430.56,459.78 ZM 253.40 461.23 C257.23,463.79 262.00,460.12 262.00,454.61 C262.00,449.30 257.59,446.55 253.02,448.99 C249.39,450.93 249.63,458.72 253.40,461.23 ZM 341.56 460.06 C345.46,464.38 351.00,461.41 351.00,455.00 C351.00,448.82 346.16,445.97 341.49,449.38 C339.07,451.15 339.11,457.36 341.56,460.06 ZM 408.99 459.27 C412.51,463.74 417.48,462.30 418.57,456.48 C419.38,452.13 417.00,448.00 413.67,448.00 C408.02,448.00 405.30,454.56 408.99,459.27 ZM 471.00 463.74 C471.00,465.53 466.45,465.31 464.57,463.43 C463.47,462.33 463.00,459.95 463.00,455.55 C463.00,450.07 462.73,449.16 461.00,448.71 C459.90,448.42 459.00,447.47 459.00,446.59 C459.00,445.67 459.84,445.00 461.00,445.00 C462.47,445.00 463.00,444.33 463.00,442.50 C463.00,440.94 463.57,440.00 464.50,440.00 C465.43,440.00 466.00,440.94 466.00,442.50 C466.00,444.50 466.50,445.00 468.50,445.00 C470.33,445.00 471.00,445.53 471.00,447.00 C471.00,448.48 470.33,449.00 468.45,449.00 C465.98,449.00 465.91,449.17 466.20,454.75 C466.45,459.60 466.85,460.65 468.75,461.49 C469.99,462.03 471.00,463.04 471.00,463.74 ZM 554.00 463.74 C554.00,465.24 550.21,465.35 547.75,463.92 C546.35,463.11 546.00,461.52 546.00,456.07 C546.00,450.07 545.75,449.17 544.00,448.71 C542.90,448.42 542.00,447.47 542.00,446.59 C542.00,445.67 542.84,445.00 544.00,445.00 C545.47,445.00 546.00,444.33 546.00,442.50 C546.00,440.94 546.57,440.00 547.50,440.00 C548.43,440.00 549.00,440.94 549.00,442.50 C549.00,444.52 549.50,445.00 551.57,445.00 C554.88,445.00 554.55,448.35 551.19,448.83 C549.07,449.13 548.93,449.57 549.20,454.83 C549.45,459.60 549.86,460.66 551.75,461.49 C552.99,462.03 554.00,463.04 554.00,463.74 ZM 232.00 463.61 C232.00,465.23 228.31,465.41 225.75,463.92 C224.35,463.11 224.00,461.52 224.00,456.07 C224.00,450.07 223.75,449.17 222.00,448.71 C220.90,448.42 220.00,447.47 220.00,446.59 C220.00,445.67 220.84,445.00 222.00,445.00 C223.47,445.00 224.00,444.33 224.00,442.50 C224.00,440.94 224.57,440.00 225.50,440.00 C226.43,440.00 227.00,440.94 227.00,442.50 C227.00,444.52 227.50,445.00 229.57,445.00 C232.86,445.00 232.56,448.35 229.24,448.82 C227.21,449.11 227.00,449.69 227.00,455.05 C227.00,460.52 227.19,461.01 229.50,461.59 C230.88,461.93 232.00,462.84 232.00,463.61 ZM 175.67 451.33 C176.97,452.64 183.37,451.97 185.17,450.35 C186.18,449.43 187.00,447.67 187.00,446.42 C187.00,442.87 184.38,441.00 179.43,441.00 L 175.00 441.00 L 175.00 445.83 C175.00,448.49 175.30,450.97 175.67,451.33 ZM 155.00 451.50 C155.00,464.33 154.90,465.00 153.00,465.00 C151.10,465.00 151.00,464.33 151.00,451.50 C151.00,438.67 151.10,438.00 153.00,438.00 C154.90,438.00 155.00,438.67 155.00,451.50 ZM 273.00 458.93 C273.00,464.33 272.78,465.00 271.00,465.00 C269.14,465.00 269.00,464.33 269.00,455.47 C269.00,447.65 269.29,445.83 270.60,445.32 C271.48,444.99 272.53,445.25 272.94,445.91 C273.52,446.83 274.28,446.83 276.34,445.89 C277.81,445.22 279.29,444.95 279.63,445.29 C280.80,446.47 279.06,449.00 277.07,449.00 C274.22,449.00 273.00,451.97 273.00,458.93 ZM 452.00 458.20 C452.00,464.33 451.80,465.00 450.00,465.00 C448.13,465.00 448.00,464.33 448.00,455.00 C448.00,445.67 448.13,445.00 450.00,445.00 C451.10,445.00 452.00,445.47 452.00,446.04 C452.00,446.75 452.60,446.75 453.93,446.04 C456.82,444.49 458.00,444.77 458.00,447.00 C458.00,448.26 457.33,449.00 456.20,449.00 C452.99,449.00 452.00,451.17 452.00,458.20 ZM 362.00 458.65 C362.00,463.63 361.68,465.00 360.50,465.00 C359.27,465.00 359.00,463.22 359.00,455.00 C359.00,446.78 359.27,445.00 360.50,445.00 C361.33,445.00 362.01,445.79 362.02,446.75 C362.03,447.90 362.29,448.10 362.78,447.33 C363.18,446.69 364.75,445.85 366.26,445.47 C368.41,444.93 369.00,445.13 369.00,446.42 C369.00,447.32 368.21,448.34 367.25,448.68 C363.03,450.18 362.00,452.14 362.00,458.65 ZM 197.20 451.00 C197.47,463.79 197.35,465.00 195.75,465.00 C194.17,465.00 194.00,463.67 194.00,451.00 C194.00,439.45 194.25,437.00 195.45,437.00 C196.63,437.00 196.95,439.59 197.20,451.00 ZM 621.00 455.00 C621.00,464.33 620.87,465.00 619.00,465.00 C617.13,465.00 617.00,464.33 617.00,455.00 C617.00,445.67 617.13,445.00 619.00,445.00 C620.87,445.00 621.00,445.67 621.00,455.00 ZM 132.87 449.25 L 131.03 454.00 L 135.53 454.00 C139.95,454.00 140.02,453.94 139.36,451.25 C138.06,446.05 135.74,441.42 135.22,443.00 C134.94,443.83 133.89,446.64 132.87,449.25 ZM 628.91 460.39 C631.48,463.49 636.14,461.70 637.51,457.10 C638.11,455.11 637.94,454.81 636.53,455.35 C635.60,455.71 634.06,456.00 633.11,456.00 C632.16,456.00 630.53,456.63 629.48,457.39 C627.86,458.57 627.78,459.03 628.91,460.39 ZM 205.67 461.33 C207.81,463.47 214.00,459.87 214.00,456.48 C214.00,455.33 213.33,455.12 211.25,455.62 C205.77,456.93 203.54,459.21 205.67,461.33 ZM 621.00 440.00 C621.00,441.93 619.04,442.71 617.67,441.33 C616.29,439.96 617.07,438.00 619.00,438.00 C620.33,438.00 621.00,438.67 621.00,440.00 Z" fill="rgb(11,17,22)"/>
<path d="M 375.00 276.63 L 375.00 291.00 L 352.75 290.88 C340.51,290.82 329.60,290.56 328.50,290.30 C307.79,285.45 293.07,269.36 290.02,248.27 C288.75,239.49 288.75,111.93 290.02,102.00 C292.35,83.75 305.49,68.14 323.89,61.78 L 330.50 59.50 L 408.00 59.50 C412.40,59.50 416.57,59.50 420.52,59.50 C479.51,59.48 489.67,59.48 497.60,63.68 C499.78,64.84 501.79,66.31 504.60,68.19 C516.32,76.03 523.59,87.56 525.93,102.00 C526.59,106.09 526.99,133.55 526.99,176.16 C527.00,249.35 526.74,253.67 521.65,263.71 C515.69,275.46 505.91,284.10 493.45,288.63 C487.30,290.86 485.58,291.00 464.45,291.00 L 442.00 291.00 L 442.00 275.20 C442.00,260.15 442.13,259.14 444.62,254.14 C446.70,249.96 448.69,247.89 454.37,244.00 C473.80,230.68 485.84,218.18 493.11,203.79 C499.39,191.35 504.94,169.55 503.50,162.99 C501.19,152.50 485.75,152.25 483.46,162.66 C481.60,171.14 476.32,185.11 472.67,191.24 C466.74,201.19 456.80,210.09 445.54,215.52 C431.50,222.29 426.03,223.44 408.00,223.41 C389.84,223.38 384.32,222.21 370.09,215.34 C352.04,206.63 340.40,191.43 334.65,169.04 C331.78,157.89 329.36,155.00 322.87,155.00 C319.71,155.00 318.18,155.66 315.78,158.07 C312.73,161.12 312.72,161.17 313.34,169.32 C315.53,197.89 330.87,222.61 357.82,240.96 C373.23,251.46 375.00,255.14 375.00,276.63 ZM 390.53 161.22 C398.21,161.37 412.38,161.33 422.00,161.12 C437.22,160.80 439.76,160.51 441.51,158.92 C443.00,157.57 445.47,157.02 451.01,156.80 L 458.50 156.50 L 458.50 150.50 L 444.50 149.50 L 443.91 136.00 L 450.33 136.00 C457.57,136.00 459.63,134.63 458.59,130.51 C457.99,128.13 457.60,128.00 450.98,128.00 L 444.00 128.00 L 444.00 114.00 L 449.92 114.00 C457.35,114.00 459.00,113.37 459.00,110.52 C459.00,107.13 457.10,106.14 449.97,105.80 C443.82,105.51 443.49,105.37 443.01,102.77 C442.30,98.94 439.47,96.00 436.51,96.00 C434.08,96.00 434.00,95.79 434.00,89.20 C434.00,82.19 433.01,80.00 429.84,80.00 C427.21,80.00 426.00,83.14 426.00,89.93 L 426.00 96.00 L 412.00 96.00 L 412.00 89.20 C412.00,82.19 411.01,80.00 407.84,80.00 C405.21,80.00 404.00,83.14 404.00,89.93 L 404.00 96.00 L 390.00 96.00 L 390.00 89.93 C390.00,83.14 388.79,80.00 386.16,80.00 C382.99,80.00 382.00,82.19 382.00,89.20 C382.00,95.17 381.77,96.00 380.13,96.00 C376.89,96.00 373.00,99.85 373.00,103.07 L 373.00 106.00 L 366.12 106.00 C358.62,106.00 356.60,107.17 357.17,111.19 C357.48,113.33 358.04,113.52 364.75,113.79 L 372.00 114.09 L 372.00 128.00 L 365.70 128.00 C359.20,128.00 357.00,129.05 357.00,132.16 C357.00,134.73 360.11,136.00 366.43,136.00 L 372.00 136.00 L 372.00 149.91 L 357.50 150.50 L 357.50 156.50 L 364.99 156.80 C370.71,157.03 372.96,157.55 374.52,159.02 C376.30,160.69 378.37,160.98 390.53,161.22 ZM 401.68 213.98 C414.63,217.87 426.72,209.65 428.63,195.66 C429.30,190.81 426.65,183.42 422.70,179.13 C415.72,171.54 401.84,171.14 394.17,178.30 C387.63,184.40 385.67,195.79 389.79,203.69 C392.18,208.26 397.25,212.65 401.68,213.98 ZM 391.12 141.00 C390.07,144.50 389.55,145.00 386.96,145.00 C385.33,145.00 384.04,144.66 384.08,144.25 C384.12,143.84 387.16,136.07 390.83,127.00 C397.25,111.11 397.61,110.49 400.50,110.22 L 403.50 109.94 L 410.00 126.60 C413.58,135.76 416.65,143.65 416.83,144.13 C417.02,144.61 415.74,145.00 414.00,145.00 C411.24,145.00 410.64,144.49 409.27,141.00 L 407.70 137.00 L 392.32 137.00 ZM 428.00 110.00 L 428.00 145.00 L 422.00 145.00 L 422.00 110.00 ZM 395.00 131.54 C395.00,132.64 396.34,133.00 400.50,133.00 C403.52,133.00 406.00,132.66 406.00,132.23 C406.00,131.81 404.69,128.10 403.10,123.98 C400.77,117.99 400.04,116.90 399.44,118.50 C399.02,119.60 397.85,122.65 396.84,125.29 C395.83,127.92 395.00,130.73 395.00,131.54 Z" fill="rgb(11,94,224)"/>
<path d="M 191.32 375.73 C190.86,372.54 185.61,356.28 184.63,355.30 C184.28,354.95 183.82,354.85 183.61,355.08 C183.31,355.40 182.51,357.49 181.55,360.24 C182.41,357.46 182.97,355.33 182.98,354.75 C182.99,353.79 183.34,353.00 183.75,353.01 C184.61,353.02 190.91,372.21 191.32,375.73 Z" fill="rgb(108,112,115)"/>
<path d="M 0.00 248.50 L 0.00 0.00 L 414.50 0.00 L 829.00 0.00 L 829.00 248.50 L 829.00 497.00 L 414.50 497.00 L 0.00 497.00 L 0.00 248.50 ZM 407.00 467.89 C407.00,463.40 407.21,462.88 408.75,463.55 C409.71,463.98 412.08,464.51 414.02,464.74 C418.85,465.32 421.21,462.58 421.77,455.73 C422.12,451.46 421.80,450.00 420.03,447.75 C417.66,444.75 413.54,444.11 409.73,446.14 C408.13,447.00 407.50,447.00 407.21,446.14 C407.00,445.51 406.20,445.00 405.42,445.00 C404.26,445.00 404.00,447.59 404.00,459.00 C404.00,470.78 404.24,473.00 405.50,473.00 C406.64,473.00 407.00,471.77 407.00,467.89 ZM 264.01 461.27 C266.36,458.27 266.59,453.04 264.54,449.07 C262.84,445.78 261.22,445.00 256.14,445.00 C251.27,445.00 248.32,447.21 246.91,451.89 C243.67,462.74 257.07,470.09 264.01,461.27 ZM 398.25 461.94 C400.21,459.52 400.51,455.82 398.98,452.96 C398.37,451.82 395.64,450.39 392.23,449.42 C385.65,447.56 383.58,445.66 385.07,442.86 C386.36,440.46 394.47,440.18 395.36,442.50 C395.68,443.33 396.84,444.00 397.94,444.00 C399.59,444.00 399.79,443.61 399.11,441.75 C397.93,438.52 394.19,436.85 389.21,437.34 C383.49,437.90 381.00,440.28 381.00,445.17 C381.00,448.56 381.40,449.21 384.25,450.49 C386.04,451.29 389.41,452.43 391.75,453.01 C395.54,453.96 396.00,454.39 396.00,457.00 C396.00,461.96 390.32,463.61 385.73,460.00 C383.16,457.98 380.00,457.32 380.00,458.81 C380.00,460.68 383.01,463.49 386.14,464.55 C390.41,465.99 395.93,464.80 398.25,461.94 ZM 128.44 461.50 C129.88,458.05 129.99,458.00 135.87,458.00 C141.81,458.00 141.85,458.02 143.00,461.50 C143.79,463.89 144.77,465.00 146.08,465.00 C148.59,465.00 148.54,464.63 144.92,455.37 C138.45,438.84 138.28,438.51 135.81,438.21 C133.83,437.96 133.17,438.67 131.62,442.71 C130.61,445.34 128.91,449.75 127.84,452.50 C123.12,464.67 123.05,465.00 125.10,465.00 C126.30,465.00 127.50,463.73 128.44,461.50 ZM 155.00 451.50 C155.00,438.67 154.90,438.00 153.00,438.00 C151.10,438.00 151.00,438.67 151.00,451.50 C151.00,464.33 151.10,465.00 153.00,465.00 C154.90,465.00 155.00,464.33 155.00,451.50 ZM 175.00 460.00 L 175.00 455.00 L 180.19 455.00 C187.18,455.00 190.00,452.46 190.00,446.15 C190.00,439.25 188.28,438.00 178.85,438.00 L 171.00 438.00 L 171.00 451.50 C171.00,464.33 171.10,465.00 173.00,465.00 C174.73,465.00 175.00,464.33 175.00,460.00 ZM 197.20 451.00 C196.95,439.59 196.63,437.00 195.45,437.00 C194.25,437.00 194.00,439.45 194.00,451.00 C194.00,463.67 194.17,465.00 195.75,465.00 C197.35,465.00 197.47,463.79 197.20,451.00 ZM 212.01 464.00 C213.26,463.33 214.08,463.33 214.50,464.00 C214.84,464.55 215.77,465.00 216.56,465.00 C217.68,465.00 218.00,463.42 218.00,457.93 C218.00,447.71 216.29,445.04 209.70,445.02 C206.89,445.00 205.21,445.70 203.20,447.73 C200.80,450.15 200.70,450.49 202.32,450.81 C203.33,451.01 204.94,450.46 205.90,449.59 C207.98,447.70 211.13,447.53 212.80,449.20 C214.99,451.39 214.05,452.73 209.96,453.28 C202.12,454.33 198.76,458.87 202.65,463.17 C204.47,465.17 209.05,465.58 212.01,464.00 ZM 232.00 463.61 C232.00,462.84 230.88,461.93 229.50,461.59 C227.19,461.01 227.00,460.52 227.00,455.05 C227.00,449.69 227.21,449.11 229.24,448.82 C232.56,448.35 232.86,445.00 229.57,445.00 C227.50,445.00 227.00,444.52 227.00,442.50 C227.00,440.94 226.43,440.00 225.50,440.00 C224.57,440.00 224.00,440.94 224.00,442.50 C224.00,444.33 223.47,445.00 222.00,445.00 C220.84,445.00 220.00,445.67 220.00,446.59 C220.00,447.47 220.90,448.42 222.00,448.71 C223.75,449.17 224.00,450.07 224.00,456.07 C224.00,461.52 224.35,463.11 225.75,463.92 C228.31,465.41 232.00,465.23 232.00,463.61 ZM 241.00 457.00 C241.00,449.67 241.17,449.00 243.00,449.00 C244.33,449.00 245.00,448.33 245.00,447.00 C245.00,445.67 244.33,445.00 243.00,445.00 C241.64,445.00 241.00,444.33 241.00,442.91 C241.00,441.65 241.80,440.60 243.00,440.29 C245.55,439.62 245.62,437.00 243.08,437.00 C239.51,437.00 238.06,438.18 237.42,441.60 C237.05,443.53 236.18,445.00 235.39,445.00 C233.52,445.00 233.61,447.91 235.50,448.64 C236.66,449.08 237.00,451.01 237.00,457.11 C237.00,464.33 237.17,465.00 239.00,465.00 C240.83,465.00 241.00,464.33 241.00,457.00 ZM 273.00 458.93 C273.00,451.97 274.22,449.00 277.07,449.00 C279.06,449.00 280.80,446.47 279.63,445.29 C279.29,444.95 277.81,445.22 276.34,445.89 C274.28,446.83 273.52,446.83 272.94,445.91 C272.53,445.25 271.48,444.99 270.60,445.32 C269.29,445.83 269.00,447.65 269.00,455.47 C269.00,464.33 269.14,465.00 271.00,465.00 C272.78,465.00 273.00,464.33 273.00,458.93 ZM 286.00 458.07 C286.00,450.48 287.54,447.65 291.37,448.20 C293.29,448.47 293.55,449.29 294.00,456.49 C294.41,463.07 294.81,464.54 296.25,464.81 C297.78,465.11 298.00,464.27 298.00,458.14 C298.00,450.67 299.34,448.00 303.10,448.00 C305.69,448.00 307.00,451.70 307.00,459.07 C307.00,463.67 307.34,465.00 308.50,465.00 C310.78,465.00 310.65,449.37 308.35,446.83 C306.33,444.61 301.27,444.44 298.97,446.53 C297.46,447.89 297.16,447.89 296.02,446.53 C294.56,444.77 290.74,444.53 287.93,446.04 C286.60,446.75 286.00,446.75 286.00,446.04 C286.00,445.47 285.10,445.00 284.00,445.00 C282.13,445.00 282.00,445.67 282.00,455.00 C282.00,464.33 282.13,465.00 284.00,465.00 C285.81,465.00 286.00,464.33 286.00,458.07 ZM 330.00 457.00 C330.00,449.67 330.17,449.00 332.00,449.00 C333.33,449.00 334.00,448.33 334.00,447.00 C334.00,445.67 333.33,445.00 332.00,445.00 C330.90,445.00 330.00,444.59 330.00,444.08 C330.00,442.03 331.30,440.00 332.61,440.00 C333.37,440.00 334.00,439.33 334.00,438.50 C334.00,436.34 330.35,436.65 328.00,439.00 C326.90,440.10 326.00,441.90 326.00,443.00 C326.00,444.11 325.33,445.00 324.50,445.00 C323.67,445.00 323.00,445.69 323.00,446.53 C323.00,447.37 323.67,448.32 324.50,448.64 C325.66,449.08 326.00,451.01 326.00,457.11 C326.00,464.33 326.17,465.00 328.00,465.00 C329.83,465.00 330.00,464.33 330.00,457.00 ZM 351.09 463.72 C355.06,460.67 356.15,454.13 353.54,449.07 C351.91,445.92 350.20,445.00 345.97,445.00 C339.56,445.00 335.93,448.78 336.07,455.30 C336.17,459.81 337.23,462.01 340.05,463.57 C343.10,465.26 348.98,465.34 351.09,463.72 ZM 362.00 458.65 C362.00,452.14 363.03,450.18 367.25,448.68 C368.21,448.34 369.00,447.32 369.00,446.42 C369.00,445.13 368.41,444.93 366.26,445.47 C364.75,445.85 363.18,446.69 362.78,447.33 C362.29,448.10 362.03,447.90 362.02,446.75 C362.01,445.79 361.33,445.00 360.50,445.00 C359.27,445.00 359.00,446.78 359.00,455.00 C359.00,463.22 359.27,465.00 360.50,465.00 C361.68,465.00 362.00,463.63 362.00,458.65 ZM 441.55 462.55 C443.51,460.58 444.00,459.07 444.00,455.00 C444.00,450.93 443.51,449.42 441.55,447.45 C438.40,444.31 432.40,444.11 428.67,447.04 C423.87,450.82 424.25,459.96 429.36,463.54 C432.71,465.89 438.69,465.40 441.55,462.55 ZM 452.00 458.20 C452.00,451.17 452.99,449.00 456.20,449.00 C457.33,449.00 458.00,448.26 458.00,447.00 C458.00,444.77 456.82,444.49 453.93,446.04 C452.60,446.75 452.00,446.75 452.00,446.04 C452.00,445.47 451.10,445.00 450.00,445.00 C448.13,445.00 448.00,445.67 448.00,455.00 C448.00,464.33 448.13,465.00 450.00,465.00 C451.80,465.00 452.00,464.33 452.00,458.20 ZM 471.00 463.74 C471.00,463.04 469.99,462.03 468.75,461.49 C466.85,460.65 466.45,459.60 466.20,454.75 C465.91,449.17 465.98,449.00 468.45,449.00 C470.33,449.00 471.00,448.48 471.00,447.00 C471.00,445.53 470.33,445.00 468.50,445.00 C466.50,445.00 466.00,444.50 466.00,442.50 C466.00,440.94 465.43,440.00 464.50,440.00 C463.57,440.00 463.00,440.94 463.00,442.50 C463.00,444.33 462.47,445.00 461.00,445.00 C459.84,445.00 459.00,445.67 459.00,446.59 C459.00,447.47 459.90,448.42 461.00,448.71 C462.73,449.16 463.00,450.07 463.00,455.55 C463.00,459.95 463.47,462.33 464.57,463.43 C466.45,465.31 471.00,465.53 471.00,463.74 ZM 487.00 463.00 C488.10,461.90 489.00,460.37 489.00,459.61 C489.00,457.15 485.62,454.33 481.19,453.09 C478.02,452.20 476.96,451.43 477.20,450.19 C477.55,448.31 484.00,447.12 484.00,448.94 C484.00,449.52 484.90,450.00 486.00,450.00 C488.43,450.00 488.52,449.23 486.35,446.83 C484.05,444.29 477.61,444.39 475.00,447.00 C471.25,450.75 473.19,454.38 480.01,456.40 C483.28,457.36 484.50,458.24 484.50,459.61 C484.50,462.09 478.91,462.80 477.04,460.55 C475.42,458.60 473.00,458.53 473.00,460.44 C473.00,464.73 483.37,466.63 487.00,463.00 ZM 519.00 463.00 C519.00,461.21 518.33,461.00 512.50,461.00 L 506.00 461.00 L 506.00 456.50 L 506.00 452.00 L 512.00 452.00 C516.57,452.00 518.00,451.66 518.00,450.55 C518.00,449.49 516.47,449.02 512.25,448.80 L 506.50 448.50 L 506.19 444.75 L 505.88 441.00 L 512.44 441.00 C517.60,441.00 519.00,440.68 519.00,439.50 C519.00,438.29 517.44,438.00 511.00,438.00 L 503.00 438.00 L 503.00 451.50 L 503.00 465.00 L 511.00 465.00 C518.33,465.00 519.00,464.83 519.00,463.00 ZM 526.00 459.57 C526.00,452.36 527.30,449.21 530.62,448.38 C534.57,447.39 536.00,449.99 536.00,458.19 C536.00,464.33 536.20,465.00 538.00,465.00 C539.81,465.00 540.00,464.33 540.00,458.05 C540.00,454.22 539.47,449.94 538.83,448.52 C537.40,445.38 533.68,444.31 529.58,445.85 C527.57,446.61 526.39,446.66 526.17,446.01 C525.98,445.45 525.20,445.00 524.42,445.00 C523.29,445.00 523.00,447.04 523.00,455.00 C523.00,463.22 523.27,465.00 524.50,465.00 C525.65,465.00 526.00,463.73 526.00,459.57 ZM 554.00 463.74 C554.00,463.04 552.99,462.03 551.75,461.49 C549.86,460.66 549.45,459.60 549.20,454.83 C548.93,449.57 549.07,449.13 551.19,448.83 C554.55,448.35 554.88,445.00 551.57,445.00 C549.50,445.00 549.00,444.52 549.00,442.50 C549.00,440.94 548.43,440.00 547.50,440.00 C546.57,440.00 546.00,440.94 546.00,442.50 C546.00,444.33 545.47,445.00 544.00,445.00 C542.84,445.00 542.00,445.67 542.00,446.59 C542.00,447.47 542.90,448.42 544.00,448.71 C545.75,449.17 546.00,450.07 546.00,456.07 C546.00,461.52 546.35,463.11 547.75,463.92 C550.21,465.35 554.00,465.24 554.00,463.74 ZM 561.00 458.07 C561.00,450.83 562.37,447.98 565.82,448.02 C569.35,448.05 570.11,449.59 570.31,457.08 C570.47,463.24 570.79,464.53 572.25,464.81 C573.80,465.11 574.00,464.23 574.00,457.30 C574.00,446.63 572.57,444.53 565.86,445.33 L 561.00 445.91 L 561.00 441.45 C561.00,437.67 560.70,437.00 559.00,437.00 C557.10,437.00 557.00,437.67 557.00,451.00 C557.00,464.33 557.10,465.00 559.00,465.00 C560.81,465.00 561.00,464.33 561.00,458.07 ZM 589.80 463.80 C590.73,462.87 591.00,462.87 591.00,463.80 C591.00,464.46 591.90,465.00 593.00,465.00 C594.87,465.00 595.00,464.33 595.00,455.00 C595.00,445.67 594.87,445.00 593.00,445.00 C591.19,445.00 591.00,445.67 591.00,451.93 C591.00,460.81 588.83,463.59 583.93,460.96 C582.29,460.08 582.00,458.82 582.00,452.46 C582.00,445.54 581.85,445.00 579.89,445.00 C577.90,445.00 577.81,445.42 578.15,452.90 C578.42,458.90 578.96,461.30 580.41,462.90 C582.52,465.24 587.85,465.75 589.80,463.80 ZM 612.00 463.00 C615.89,459.11 613.78,454.61 607.50,453.43 C603.26,452.64 600.94,450.29 603.06,448.94 C605.03,447.69 608.37,447.77 609.69,449.09 C610.30,449.70 611.62,450.03 612.63,449.83 C614.35,449.50 614.32,449.32 612.24,447.24 C607.96,442.96 599.00,444.75 599.00,449.88 C599.00,453.27 601.30,455.52 606.00,456.73 C608.49,457.37 609.50,458.19 609.50,459.56 C609.50,462.10 603.31,462.97 602.39,460.56 C601.74,458.88 598.00,458.37 598.00,459.96 C598.00,460.49 598.98,461.84 600.19,462.96 C603.11,465.68 609.30,465.70 612.00,463.00 ZM 621.00 455.00 C621.00,445.67 620.87,445.00 619.00,445.00 C617.13,445.00 617.00,445.67 617.00,455.00 C617.00,464.33 617.13,465.00 619.00,465.00 C620.87,465.00 621.00,464.33 621.00,455.00 ZM 635.92 463.75 C636.98,462.75 637.34,462.75 637.71,463.75 C637.96,464.44 638.80,465.00 639.58,465.00 C641.79,465.00 641.58,449.30 639.35,446.83 C636.95,444.19 630.29,444.38 627.31,447.17 C626.04,448.37 625.00,449.72 625.00,450.17 C625.00,451.54 628.04,451.10 629.64,449.50 C631.76,447.39 635.73,447.63 636.97,449.94 C638.18,452.21 637.82,452.50 632.52,453.46 C630.33,453.85 627.74,454.60 626.77,455.12 C624.53,456.32 624.47,460.76 626.65,463.17 C628.56,465.27 633.95,465.61 635.92,463.75 ZM 657.78 463.44 C662.13,460.39 659.80,454.94 653.50,453.44 C649.16,452.40 647.71,451.06 649.11,449.37 C650.47,447.73 654.17,447.57 655.69,449.09 C656.30,449.70 657.52,450.03 658.42,449.84 C659.92,449.53 659.92,449.31 658.47,447.25 C655.34,442.80 645.00,445.24 645.00,450.43 C645.00,453.25 646.49,454.58 651.61,456.35 C654.29,457.28 655.50,458.29 655.50,459.60 C655.50,462.06 650.85,462.71 648.70,460.55 C647.13,458.99 644.00,458.41 644.00,459.69 C644.00,460.06 644.98,461.41 646.17,462.69 C648.76,465.44 654.40,465.81 657.78,463.44 ZM 673.00 463.62 C673.00,462.86 672.10,462.00 671.00,461.71 C669.28,461.26 669.00,460.35 669.00,455.09 C669.00,449.67 669.22,449.00 671.00,449.00 C672.33,449.00 673.00,448.33 673.00,447.00 C673.00,445.67 672.33,445.00 671.00,445.00 C669.53,445.00 669.00,444.33 669.00,442.50 C669.00,440.67 668.47,440.00 667.00,440.00 C665.53,440.00 665.00,440.67 665.00,442.50 C665.00,444.33 664.47,445.00 663.00,445.00 C661.84,445.00 661.00,445.67 661.00,446.59 C661.00,447.47 661.90,448.42 663.00,448.71 C664.72,449.16 665.00,450.07 665.00,455.29 C665.00,459.52 665.50,461.89 666.65,463.17 C668.60,465.32 673.00,465.63 673.00,463.62 ZM 689.00 463.00 C693.02,458.98 690.87,455.31 683.19,453.11 C680.02,452.21 678.96,451.43 679.20,450.19 C679.60,448.07 683.58,447.44 686.55,449.03 C690.11,450.93 691.77,449.77 689.19,447.19 C685.01,443.01 675.00,445.32 675.00,450.46 C675.00,452.74 679.00,455.91 682.76,456.61 C686.70,457.35 688.08,459.73 685.62,461.54 C683.63,462.99 680.06,462.33 679.31,460.36 C678.78,458.99 675.00,458.40 675.00,459.69 C675.00,460.06 675.98,461.41 677.17,462.69 C680.01,465.70 686.14,465.86 689.00,463.00 ZM 621.00 440.00 C621.00,438.67 620.33,438.00 619.00,438.00 C617.07,438.00 616.29,439.96 617.67,441.33 C619.04,442.71 621.00,441.93 621.00,440.00 ZM 256.53 398.19 L 260.88 395.13 L 261.19 397.81 C261.48,400.33 261.82,400.50 266.50,400.50 L 271.50 400.50 L 271.77 384.25 L 272.05 368.00 L 258.52 368.00 L 245.00 368.00 L 245.00 373.00 L 245.00 378.00 L 252.00 378.00 C255.85,378.00 259.00,378.24 259.00,378.53 C259.00,378.82 258.35,380.61 257.56,382.51 C255.59,387.21 250.75,389.99 244.50,389.99 C234.02,389.99 228.65,383.05 228.64,369.50 C228.64,356.62 232.88,350.93 243.02,350.19 C251.10,349.61 254.40,351.12 257.07,356.65 L 259.22 361.09 L 265.36 360.79 L 271.50 360.50 L 271.24 357.17 C270.38,346.34 261.37,339.02 247.92,338.22 C237.31,337.58 230.23,339.77 224.00,345.59 C216.92,352.22 214.61,358.24 214.63,370.00 C214.65,380.71 216.36,385.92 221.93,392.26 C228.41,399.64 234.58,402.10 245.34,401.58 C251.06,401.31 252.90,400.75 256.53,398.19 ZM 324.61 399.20 C329.59,396.66 334.58,391.14 337.39,385.05 C339.11,381.34 339.50,378.57 339.50,370.00 C339.50,358.21 337.97,353.46 331.99,346.64 C326.18,340.03 322.03,338.50 310.00,338.53 C301.17,338.55 298.84,338.90 295.37,340.73 C289.89,343.63 283.52,351.01 281.58,356.73 C279.43,363.03 279.47,377.61 281.66,383.23 C284.95,391.70 291.87,398.11 301.00,401.13 C305.62,402.66 320.16,401.47 324.61,399.20 ZM 405.55 399.23 C412.35,395.76 416.00,389.91 416.00,382.50 C416.00,376.89 414.05,372.89 409.75,369.67 C406.29,367.09 403.89,366.19 392.00,363.04 C383.36,360.74 379.51,357.52 380.89,353.74 C381.97,350.79 385.56,349.03 390.50,349.03 C396.75,349.03 398.74,349.94 400.48,353.60 C402.05,356.91 402.26,357.00 408.08,357.00 C415.41,357.00 416.13,355.84 412.86,349.25 C408.71,340.89 400.75,337.41 387.77,338.29 C382.30,338.66 379.03,339.43 376.57,340.96 C365.98,347.50 363.88,359.12 371.83,367.07 C375.44,370.67 378.12,371.73 396.80,376.91 C404.24,378.98 405.13,386.79 398.24,389.67 C390.99,392.70 379.98,389.51 379.18,384.15 C378.89,382.18 378.26,382.00 371.80,382.00 L 364.74 382.00 L 365.31 385.54 C366.57,393.27 372.81,399.09 382.00,401.12 C388.20,402.49 401.20,401.45 405.55,399.23 ZM 523.50 398.76 C533.46,393.63 538.07,385.69 538.79,372.41 C539.57,358.17 534.82,347.87 524.54,341.52 C519.90,338.65 519.12,338.50 509.08,338.52 C499.61,338.54 497.98,338.81 493.50,341.17 C485.79,345.23 481.93,350.33 479.49,359.68 C475.28,375.88 481.07,391.85 493.50,398.24 C499.90,401.54 502.03,401.96 510.50,401.64 C516.74,401.41 519.60,400.77 523.50,398.76 ZM 695.06 399.51 C702.93,395.52 706.32,390.23 706.33,381.89 C706.34,372.32 701.39,367.76 687.50,364.54 C677.23,362.15 672.20,359.64 671.41,356.48 C670.38,352.39 673.61,349.78 680.43,349.21 C686.71,348.69 690.45,350.42 692.02,354.55 C692.86,356.77 693.51,357.00 698.92,357.00 C702.20,357.00 705.12,356.62 705.40,356.16 C706.25,354.79 704.14,348.45 701.89,345.59 C697.73,340.29 692.54,338.50 681.50,338.53 C671.26,338.55 668.49,339.35 663.47,343.73 C659.29,347.37 658.00,350.31 658.00,356.19 C658.00,361.20 658.40,362.38 661.15,365.52 C665.23,370.16 668.34,371.70 680.45,375.08 C690.62,377.91 693.00,379.53 693.00,383.58 C693.00,389.40 685.19,392.47 676.40,390.11 C673.31,389.28 671.86,388.16 670.43,385.50 C668.58,382.07 668.42,382.00 662.27,382.00 C656.09,382.00 656.00,382.04 656.02,384.75 C656.06,391.46 663.39,398.78 672.40,401.12 C677.46,402.43 691.22,401.45 695.06,399.51 ZM 139.00 389.85 L 139.00 378.71 L 147.88 362.60 C152.77,353.75 157.77,344.81 158.98,342.75 L 161.20 339.00 L 153.27 339.00 L 145.34 339.00 L 139.16 352.05 C135.77,359.23 132.63,364.89 132.20,364.62 C131.77,364.36 128.78,358.48 125.55,351.57 L 119.69 339.00 L 111.81 339.00 C103.96,339.00 103.93,339.01 105.11,341.25 C105.76,342.49 110.50,351.21 115.64,360.63 L 125.00 377.77 L 125.00 388.72 C125.00,394.74 125.30,399.97 125.67,400.33 C126.03,400.70 129.18,401.00 132.67,401.00 L 139.00 401.00 L 139.00 389.85 ZM 170.56 394.00 L 172.63 387.50 L 184.16 387.22 L 195.70 386.94 L 197.63 393.72 L 199.57 400.50 L 206.78 400.79 C210.75,400.96 214.00,400.86 214.00,400.58 C214.00,400.30 213.14,397.70 212.08,394.79 C211.03,391.88 206.72,379.83 202.50,368.00 C198.28,356.17 194.25,344.92 193.53,343.00 L 192.23 339.50 L 184.26 339.21 L 176.29 338.92 L 173.54 346.71 C169.09,359.33 162.12,378.80 158.43,388.90 C156.54,394.07 155.00,398.93 155.00,399.70 C155.00,400.78 156.50,401.03 161.75,400.80 L 168.50 400.50 L 170.56 394.00 ZM 438.00 391.09 L 438.00 381.19 L 447.75 380.84 C459.69,380.42 465.69,377.94 469.82,371.70 C472.18,368.13 472.50,366.67 472.50,359.42 C472.50,351.73 472.30,350.94 469.45,347.41 C463.79,340.42 460.77,339.54 441.25,339.19 L 424.00 338.87 L 424.00 369.27 C424.00,385.99 424.30,399.97 424.67,400.33 C425.03,400.70 428.18,401.00 431.67,401.00 L 438.00 401.00 L 438.00 391.09 ZM 561.00 390.00 L 561.00 379.00 L 566.44 379.00 L 571.87 379.00 L 577.33 389.75 L 582.78 400.50 L 590.39 400.79 C594.58,400.95 598.00,400.81 598.00,400.47 C598.00,399.62 587.02,379.73 585.90,378.55 C584.52,377.10 584.82,376.00 586.60,376.00 C587.48,376.00 589.68,374.52 591.50,372.70 C598.51,365.69 598.70,353.28 591.92,345.56 C587.17,340.15 582.16,339.00 563.32,339.00 L 547.00 339.00 L 547.00 369.33 C547.00,386.02 547.30,399.97 547.67,400.33 C548.03,400.70 551.18,401.00 554.67,401.00 L 561.00 401.00 L 561.00 390.00 ZM 634.00 376.00 L 634.00 351.00 L 643.50 351.00 L 653.00 351.00 L 653.00 345.00 L 653.00 339.00 L 627.50 339.00 L 602.00 339.00 L 602.00 345.00 L 602.00 351.00 L 611.00 351.00 L 620.00 351.00 L 620.00 375.33 C620.00,388.72 620.30,399.97 620.67,400.33 C621.03,400.70 624.18,401.00 627.67,401.00 L 634.00 401.00 L 634.00 376.00 ZM 375.00 276.63 C375.00,255.14 373.23,251.46 357.82,240.96 C330.87,222.61 315.53,197.89 313.34,169.32 C312.72,161.17 312.73,161.12 315.78,158.07 C318.18,155.66 319.71,155.00 322.87,155.00 C329.36,155.00 331.78,157.89 334.65,169.04 C340.40,191.43 352.04,206.63 370.09,215.34 C384.32,222.21 389.84,223.38 408.00,223.41 C426.03,223.44 431.50,222.29 445.54,215.52 C456.80,210.09 466.74,201.19 472.67,191.24 C476.32,185.11 481.60,171.14 483.46,162.66 C485.75,152.25 501.19,152.50 503.50,162.99 C504.94,169.55 499.39,191.35 493.11,203.79 C485.84,218.18 473.80,230.68 454.37,244.00 C448.69,247.89 446.70,249.96 444.62,254.14 C442.13,259.14 442.00,260.15 442.00,275.20 L 442.00 291.00 L 464.45 291.00 C485.58,291.00 487.30,290.86 493.45,288.63 C505.91,284.10 515.69,275.46 521.65,263.71 C526.74,253.67 527.00,249.35 526.99,176.16 C526.99,133.55 526.59,106.09 525.93,102.00 C523.59,87.56 516.32,76.03 504.60,68.19 C490.88,59.02 496.22,59.50 408.00,59.50 L 330.50 59.50 L 323.89 61.78 C305.49,68.14 292.35,83.75 290.02,102.00 C288.75,111.93 288.75,239.49 290.02,248.27 C293.07,269.36 307.79,285.45 328.50,290.30 C329.60,290.56 340.51,290.82 352.75,290.88 L 375.00 291.00 L 375.00 276.63 ZM 408.99 459.27 C405.30,454.56 408.02,448.00 413.67,448.00 C417.00,448.00 419.38,452.13 418.57,456.48 C417.48,462.30 412.51,463.74 408.99,459.27 ZM 253.40 461.23 C249.63,458.72 249.39,450.93 253.02,448.99 C257.59,446.55 262.00,449.30 262.00,454.61 C262.00,460.12 257.23,463.79 253.40,461.23 ZM 132.87 449.25 C133.89,446.64 134.94,443.83 135.22,443.00 C135.74,441.42 138.06,446.05 139.36,451.25 C140.02,453.94 139.95,454.00 135.53,454.00 L 131.03 454.00 L 132.87 449.25 ZM 175.67 451.33 C175.30,450.97 175.00,448.49 175.00,445.83 L 175.00 441.00 L 179.43 441.00 C184.38,441.00 187.00,442.87 187.00,446.42 C187.00,447.67 186.18,449.43 185.17,450.35 C183.37,451.97 176.97,452.64 175.67,451.33 ZM 205.67 461.33 C203.54,459.21 205.77,456.93 211.25,455.62 C213.33,455.12 214.00,455.33 214.00,456.48 C214.00,459.87 207.81,463.47 205.67,461.33 ZM 341.56 460.06 C339.11,457.36 339.07,451.15 341.49,449.38 C346.16,445.97 351.00,448.82 351.00,455.00 C351.00,461.41 345.46,464.38 341.56,460.06 ZM 430.56 459.78 C427.17,454.95 429.80,448.00 435.00,448.00 C436.85,448.00 438.45,448.80 439.44,450.22 C442.83,455.05 440.20,462.00 435.00,462.00 C433.15,462.00 431.55,461.20 430.56,459.78 ZM 628.91 460.39 C627.78,459.03 627.86,458.57 629.48,457.39 C630.53,456.63 632.16,456.00 633.11,456.00 C634.06,456.00 635.60,455.71 636.53,455.35 C637.94,454.81 638.11,455.11 637.51,457.10 C636.14,461.70 631.48,463.49 628.91,460.39 ZM 301.29 388.04 C296.25,384.96 294.00,379.47 294.02,370.29 C294.06,356.02 298.97,350.01 310.62,350.00 C321.58,350.00 325.44,355.20 325.48,370.00 C325.50,380.66 323.79,384.94 318.16,388.25 C314.04,390.68 305.44,390.57 301.29,388.04 ZM 502.00 389.30 C496.68,387.36 492.00,378.33 492.00,370.00 C492.00,363.51 494.74,356.44 498.55,353.09 C501.73,350.30 502.72,350.00 508.69,350.00 C517.35,350.00 521.23,352.68 523.47,360.21 C526.65,370.92 524.88,381.07 518.88,386.49 C515.35,389.68 514.47,389.99 509.25,389.92 C506.09,389.88 502.83,389.60 502.00,389.30 ZM 176.79 376.46 C176.30,375.97 182.64,356.11 183.61,355.08 C183.82,354.85 184.28,354.95 184.63,355.30 C185.70,356.36 191.79,375.45 191.32,376.25 C190.82,377.10 177.62,377.29 176.79,376.46 ZM 438.67 369.33 C438.30,368.97 438.00,364.47 438.00,359.33 L 438.00 350.00 L 446.05 350.00 C453.25,350.00 454.35,350.26 456.55,352.45 C458.36,354.26 459.00,355.99 459.00,359.02 C459.00,364.41 457.58,366.86 453.45,368.58 C450.00,370.03 439.87,370.54 438.67,369.33 ZM 561.67 367.33 C561.30,366.97 561.00,362.92 561.00,358.33 L 561.00 350.00 L 568.55 350.00 C576.43,350.00 581.24,351.58 582.38,354.54 C583.82,358.29 582.96,362.19 580.08,365.08 C577.37,367.78 576.60,368.00 569.74,368.00 C565.67,368.00 562.03,367.70 561.67,367.33 ZM 401.68 213.98 C397.25,212.65 392.18,208.26 389.79,203.69 C385.67,195.79 387.63,184.40 394.17,178.30 C401.84,171.14 415.72,171.54 422.70,179.13 C426.65,183.42 429.30,190.81 428.63,195.66 C426.72,209.65 414.63,217.87 401.68,213.98 ZM 390.53 161.22 C378.37,160.98 376.30,160.69 374.52,159.02 C372.96,157.55 370.71,157.03 364.99,156.80 L 357.50 156.50 L 357.50 153.50 L 357.50 150.50 L 364.75 150.21 L 372.00 149.91 L 372.00 142.96 L 372.00 136.00 L 366.43 136.00 C360.11,136.00 357.00,134.73 357.00,132.16 C357.00,129.05 359.20,128.00 365.70,128.00 L 372.00 128.00 L 372.00 121.04 L 372.00 114.09 L 364.75 113.79 C358.04,113.52 357.48,113.33 357.17,111.19 C356.60,107.17 358.62,106.00 366.12,106.00 L 373.00 106.00 L 373.00 103.07 C373.00,99.85 376.89,96.00 380.13,96.00 C381.77,96.00 382.00,95.17 382.00,89.20 C382.00,82.19 382.99,80.00 386.16,80.00 C388.79,80.00 390.00,83.14 390.00,89.93 L 390.00 96.00 L 397.00 96.00 L 404.00 96.00 L 404.00 89.93 C404.00,83.14 405.21,80.00 407.84,80.00 C411.01,80.00 412.00,82.19 412.00,89.20 L 412.00 96.00 L 419.00 96.00 L 426.00 96.00 L 426.00 89.93 C426.00,83.14 427.21,80.00 429.84,80.00 C433.01,80.00 434.00,82.19 434.00,89.20 C434.00,95.79 434.08,96.00 436.51,96.00 C439.47,96.00 442.30,98.94 443.01,102.77 C443.49,105.37 443.82,105.51 449.97,105.80 C457.10,106.14 459.00,107.13 459.00,110.52 C459.00,113.37 457.35,114.00 449.92,114.00 L 444.00 114.00 L 444.00 121.00 L 444.00 128.00 L 450.98 128.00 C457.60,128.00 457.99,128.13 458.59,130.51 C459.63,134.63 457.57,136.00 450.33,136.00 L 443.91 136.00 L 444.20 142.75 L 444.50 149.50 L 451.50 150.00 L 458.50 150.50 L 458.50 153.50 L 458.50 156.50 L 451.01 156.80 C445.47,157.02 443.00,157.57 441.51,158.92 C439.76,160.51 437.22,160.80 422.00,161.12 C412.38,161.33 398.21,161.37 390.53,161.22 ZM 391.12 141.00 L 392.32 137.00 L 400.01 137.00 L 407.70 137.00 L 409.27 141.00 C410.64,144.49 411.24,145.00 414.00,145.00 C415.74,145.00 417.02,144.61 416.83,144.13 C416.65,143.65 413.58,135.76 410.00,126.60 L 403.50 109.94 L 400.50 110.22 C397.61,110.49 397.25,111.11 390.83,127.00 C387.16,136.07 384.12,143.84 384.08,144.25 C384.04,144.66 385.33,145.00 386.96,145.00 C389.55,145.00 390.07,144.50 391.12,141.00 ZM 428.00 127.50 L 428.00 110.00 L 425.00 110.00 L 422.00 110.00 L 422.00 127.50 L 422.00 145.00 L 425.00 145.00 L 428.00 145.00 L 428.00 127.50 ZM 395.00 131.54 C395.00,130.73 395.83,127.92 396.84,125.29 C397.85,122.65 399.02,119.60 399.44,118.50 C400.04,116.90 400.77,117.99 403.10,123.98 C404.69,128.10 406.00,131.81 406.00,132.23 C406.00,132.66 403.52,133.00 400.50,133.00 C396.34,133.00 395.00,132.64 395.00,131.54 Z" fill="rgb(254,254,254)"/>
</g>
</svg>