<svg xmlns="http://www.w3.org/2000/svg" viewBox="0 0 100 100" width="100" height="100">
  <defs>
    <linearGradient id="grad1" x1="0%" y1="0%" x2="100%" y2="100%">
      <stop offset="0%" style="stop-color:#0A5FFF;stop-opacity:1" />
      <stop offset="100%" style="stop-color:#00D9FF;stop-opacity:1" />
    </linearGradient>
  </defs>
  
  <!-- 배경 원 -->
  <circle cx="50" cy="50" r="48" fill="url(#grad1)" />
  
  <!-- YAGO 텍스트 (단순화) -->
  <text x="50" y="55" font-family="Arial, sans-serif" font-size="28" font-weight="bold" fill="white" text-anchor="middle">Y</text>
  
  <!-- 운동 아이콘 (축구공) -->
  <circle cx="50" cy="35" r="8" fill="none" stroke="white" stroke-width="2"/>
  <path d="M 50 27 Q 45 30 42 35 Q 50 32 58 35 Q 55 30 50 27" fill="none" stroke="white" stroke-width="1"/>
  <path d="M 50 35 Q 45 38 42 43 Q 50 40 58 43 Q 55 38 50 35" fill="none" stroke="white" stroke-width="1"/>
  
  <!-- VIBE 느낌 (파형) -->
  <path d="M 30 65 Q 35 60 40 65 T 50 65 T 60 65 T 70 65" fill="none" stroke="white" stroke-width="2"/>
  <path d="M 30 75 Q 35 80 40 75 T 50 75 T 60 75 T 70 75" fill="none" stroke="white" stroke-width="2"/>
</svg>

